<?xml version="1.0" standalone="no"?>
<!DOCTYPE svg PUBLIC "-//W3C//DTD SVG 20010904//EN"
 "http://www.w3.org/TR/2001/REC-SVG-20010904/DTD/svg10.dtd">
<svg version="1.0" xmlns="http://www.w3.org/2000/svg"
 width="1280.000000pt" height="674.000000pt" viewBox="0 0 1280.000000 674.000000"
 preserveAspectRatio="xMidYMid meet">
<g transform="translate(0.000000,674.000000) scale(0.100000,-0.100000)"
fill="#000000" stroke="none">
<path d="M6635 6670 c-931 -57 -1776 -538 -2283 -1300 -91 -137 -223 -394
-277 -540 -21 -58 -40 -107 -42 -109 -1 -2 -33 8 -70 22 -140 55 -218 69 -373
71 -106 1 -167 -4 -229 -17 -422 -91 -743 -434 -807 -862 -8 -55 -17 -101 -19
-103 -2 -2 -58 4 -125 12 -352 46 -688 23 -1023 -69 -1013 -277 -1555 -1121
-1226 -1911 145 -348 488 -671 909 -856 317 -139 631 -202 1000 -201 381 0
719 70 1024 212 70 32 101 42 104 33 2 -7 26 -58 54 -114 180 -369 488 -638
877 -768 173 -58 276 -74 476 -74 189 0 283 14 445 66 221 71 414 186 582 346
l67 64 78 -32 c239 -100 419 -143 671 -160 421 -29 858 83 1192 305 37 25 72
45 76 45 5 0 41 -28 79 -63 373 -330 780 -515 1300 -589 149 -21 503 -16 670
10 270 42 472 105 710 222 256 125 409 234 606 429 69 69 158 169 198 222 l71
96 113 -5 c272 -12 564 80 787 246 441 330 600 890 396 1398 -70 176 -232 381
-397 504 -147 109 -341 193 -524 225 -119 21 -314 21 -441 0 l-100 -17 -107
105 c-108 106 -273 236 -402 317 -214 133 -531 255 -795 306 -80 15 -146 28
-147 29 -1 0 -11 59 -22 130 -91 590 -365 1114 -808 1546 -419 408 -945 678
-1523 783 -240 43 -511 60 -745 46z"/>
</g>
</svg>
